<svg width="24" height="25" viewBox="0 0 24 25" fill="none" xmlns="http://www.w3.org/2000/svg">
<path d="M23.7114 13.9586L23.2506 13.3149C22.8699 12.7836 22.8649 12.0632 23.2356 11.5216L23.6863 10.8728C24.2073 10.1166 23.9668 9.06927 23.1654 8.62989L22.4792 8.25182C21.9083 7.94016 21.5977 7.29131 21.7029 6.64246L21.8331 5.85567C21.9834 4.94625 21.3172 4.10326 20.4106 4.0675L19.6293 4.03173C18.9832 4.00619 18.4272 3.55659 18.2469 2.92307L18.0315 2.15671C17.7811 1.26773 16.8244 0.807915 15.9879 1.17577L15.2717 1.49253C14.6756 1.75309 13.9894 1.59982 13.5537 1.10424L13.0328 0.511589C12.4267 -0.178134 11.3699 -0.167916 10.7738 0.526916L10.2629 1.12979C9.83721 1.62536 9.15101 1.79396 8.55497 1.54362L7.83371 1.24218C6.99726 0.889659 6.0456 1.3648 5.80518 2.25889L5.59982 3.02525C5.43453 3.66899 4.88858 4.1237 4.24245 4.15946L3.46109 4.20544C2.55451 4.25653 1.90338 5.10974 2.06866 6.01405L2.20891 6.79573C2.32411 7.44458 2.02359 8.09854 1.4576 8.41531L0.776412 8.80359C-0.0149677 9.25319 -0.245369 10.3057 0.290565 11.0516L0.751368 11.6953C1.13203 12.2267 1.13704 12.947 0.766394 13.4886L0.315609 14.1375C-0.205299 14.8936 0.0351196 15.941 0.836517 16.3803L1.52271 16.7584C2.09371 17.0701 2.40425 17.7189 2.29907 18.3678L2.16383 19.1494C2.01357 20.0589 2.67973 20.9018 3.58631 20.9376L4.36767 20.9734C5.0138 20.9989 5.56977 21.4485 5.75008 22.082L5.96546 22.8484C6.21589 23.7374 7.17256 24.1972 8.00902 23.8293L8.72527 23.5126C9.32131 23.252 10.0075 23.4053 10.4433 23.8958L10.9642 24.4884C11.5702 25.1781 12.6271 25.1679 13.2231 24.4731L13.734 23.8702C14.1597 23.3746 14.8459 23.206 15.442 23.4564L16.1632 23.7578C16.9997 24.1103 17.9514 23.6352 18.1918 22.7411L18.3971 21.9748C18.5674 21.3412 19.1184 20.8865 19.7645 20.8457L20.5459 20.7997C21.4525 20.7486 22.1036 19.8954 21.9383 18.9911L21.7981 18.2094C21.6829 17.5605 21.9834 16.9066 22.5494 16.5898L23.2306 16.2015C24.0169 15.7621 24.2423 14.7046 23.7114 13.9586ZM12.001 20.5749C7.63337 20.5749 4.09219 16.9628 4.09219 12.5077C4.09219 8.05256 7.63337 4.44046 12.001 4.44046C16.3686 4.44046 19.9098 8.05256 19.9098 12.5077C19.9098 16.9628 16.3686 20.5749 12.001 20.5749Z" fill="#FFBF01"/>
<path d="M10.9892 12.7222L10.288 12.0019C9.87227 11.5727 9.19108 11.5727 8.77035 11.9968C8.34961 12.4208 8.34961 13.1156 8.76534 13.5448L9.46656 14.2652L10.2479 15.0622C10.6536 15.4811 11.3148 15.4811 11.7255 15.0673L15.2316 11.5114C15.6523 11.0873 15.6523 10.3925 15.2366 9.96335C14.8209 9.53419 14.1397 9.53419 13.719 9.95824L10.9892 12.7222Z" fill="#FFBF01"/>
</svg>
